<?xml version="1.0" encoding="utf-8" standalone="no"?>
<!DOCTYPE svg PUBLIC "-//W3C//DTD SVG 1.1//EN"
  "http://www.w3.org/Graphics/SVG/1.1/DTD/svg11.dtd">
<svg xmlns:xlink="http://www.w3.org/1999/xlink" width="756pt" height="518.4pt" viewBox="0 0 756 518.4" xmlns="http://www.w3.org/2000/svg" version="1.1">
 <metadata>
  <rdf:RDF xmlns:dc="http://purl.org/dc/elements/1.1/" xmlns:cc="http://creativecommons.org/ns#" xmlns:rdf="http://www.w3.org/1999/02/22-rdf-syntax-ns#">
   <cc:Work>
    <dc:type rdf:resource="http://purl.org/dc/dcmitype/StillImage"/>
    <dc:format>image/svg+xml</dc:format>
    <dc:creator>
     <cc:Agent>
      <dc:title>Matplotlib v3.11.2, https://matplotlib.org/</dc:title>
     </cc:Agent>
    </dc:creator>
   </cc:Work>
  </rdf:RDF>
 </metadata>
 <defs>
  <style type="text/css">*{stroke-linejoin: round; stroke-linecap: butt}</style>
 </defs>
 <g id="figure_1">
  <g id="patch_1">
   <path d="M 0 518.4
L 756 518.4
L 756 0
L 0 0
z
" style="fill: #ffffff"/>
  </g>
  <g id="axes_1">
   <g id="patch_2">
    <path d="M 120.96 435.456
L 740.88 435.456
L 740.88 72.576
L 120.96 72.576
z
" style="fill: #ffffff"/>
   </g>
   <g id="matplotlib.axis_1">
    <g id="xtick_1">
     <g id="line2d_1">
      <path d="M 169.64983 435.456
L 169.64983 72.576
" clip-path="url(#pfcde8d0536)" style="fill: none; stroke: #e6e6e6; stroke-width: 0.6; stroke-linecap: square"/>
     </g>
     <g id="line2d_2">
      <defs>
       <path id="m6fc466c1c1" d="M 0 0
L 0 3.5
" style="stroke: #000000; stroke-width: 0.8"/>
      </defs>
      <g>
       <use xlink:href="#m6fc466c1c1" x="169.64983" y="435.456" style="stroke: #000000; stroke-width: 0.8"/>
      </g>
     </g>
     <g id="text_1">
      <text style="font-size: 11px; font-family: 'DejaVu Sans'; text-anchor: middle" x="169.64983" y="450.813422" transform="rotate(-0 169.64983 450.813422)">-30</text>
     </g>
    </g>
    <g id="xtick_2">
     <g id="line2d_3">
      <path d="M 266.053407 435.456
L 266.053407 72.576
" clip-path="url(#pfcde8d0536)" style="fill: none; stroke: #e6e6e6; stroke-width: 0.6; stroke-linecap: square"/>
     </g>
     <g id="line2d_4">
      <g>
       <use xlink:href="#m6fc466c1c1" x="266.053407" y="435.456" style="stroke: #000000; stroke-width: 0.8"/>
      </g>
     </g>
     <g id="text_2">
      <text style="font-size: 11px; font-family: 'DejaVu Sans'; text-anchor: middle" x="266.053407" y="450.813422" transform="rotate(-0 266.053407 450.813422)">-20</text>
     </g>
    </g>
    <g id="xtick_3">
     <g id="line2d_5">
      <path d="M 362.456984 435.456
L 362.456984 72.576
" clip-path="url(#pfcde8d0536)" style="fill: none; stroke: #e6e6e6; stroke-width: 0.6; stroke-linecap: square"/>
     </g>
     <g id="line2d_6">
      <g>
       <use xlink:href="#m6fc466c1c1" x="362.456984" y="435.456" style="stroke: #000000; stroke-width: 0.8"/>
      </g>
     </g>
     <g id="text_3">
      <text style="font-size: 11px; font-family: 'DejaVu Sans'; text-anchor: middle" x="362.456984" y="450.813422" transform="rotate(-0 362.456984 450.813422)">-10</text>
     </g>
    </g>
    <g id="xtick_4">
     <g id="line2d_7">
      <path d="M 458.86056 435.456
L 458.86056 72.576
" clip-path="url(#pfcde8d0536)" style="fill: none; stroke: #e6e6e6; stroke-width: 0.6; stroke-linecap: square"/>
     </g>
     <g id="line2d_8">
      <g>
       <use xlink:href="#m6fc466c1c1" x="458.86056" y="435.456" style="stroke: #000000; stroke-width: 0.8"/>
      </g>
     </g>
     <g id="text_4">
      <text style="font-size: 11px; font-family: 'DejaVu Sans'; text-anchor: middle" x="458.86056" y="450.813422" transform="rotate(-0 458.86056 450.813422)">0</text>
     </g>
    </g>
    <g id="xtick_5">
     <g id="line2d_9">
      <path d="M 555.264137 435.456
L 555.264137 72.576
" clip-path="url(#pfcde8d0536)" style="fill: none; stroke: #e6e6e6; stroke-width: 0.6; stroke-linecap: square"/>
     </g>
     <g id="line2d_10">
      <g>
       <use xlink:href="#m6fc466c1c1" x="555.264137" y="435.456" style="stroke: #000000; stroke-width: 0.8"/>
      </g>
     </g>
     <g id="text_5">
      <text style="font-size: 11px; font-family: 'DejaVu Sans'; text-anchor: middle" x="555.264137" y="450.813422" transform="rotate(-0 555.264137 450.813422)">10</text>
     </g>
    </g>
    <g id="xtick_6">
     <g id="line2d_11">
      <path d="M 651.667714 435.456
L 651.667714 72.576
" clip-path="url(#pfcde8d0536)" style="fill: none; stroke: #e6e6e6; stroke-width: 0.6; stroke-linecap: square"/>
     </g>
     <g id="line2d_12">
      <g>
       <use xlink:href="#m6fc466c1c1" x="651.667714" y="435.456" style="stroke: #000000; stroke-width: 0.8"/>
      </g>
     </g>
     <g id="text_6">
      <text style="font-size: 11px; font-family: 'DejaVu Sans'; text-anchor: middle" x="651.667714" y="450.813422" transform="rotate(-0 651.667714 450.813422)">20</text>
     </g>
    </g>
    <g id="text_7">
     <text style="font-size: 11px; font-family: 'DejaVu Sans'; text-anchor: middle" x="430.92" y="466.254281" transform="rotate(-0 430.92 466.254281)">MAE de la continuación MAE menos MAE de la continuación MSE (pb)</text>
    </g>
   </g>
   <g id="matplotlib.axis_2">
    <g id="ytick_1">
     <g id="line2d_13">
      <defs>
       <path id="m537fa093e8" d="M 0 0
L -3.5 0
" style="stroke: #000000; stroke-width: 0.8"/>
      </defs>
      <g>
       <use xlink:href="#m537fa093e8" x="120.96" y="89.070545" style="stroke: #000000; stroke-width: 0.8"/>
      </g>
     </g>
     <g id="text_8">
      <text style="font-size: 11px; font-family: 'DejaVu Sans'; text-anchor: end" x="113.96" y="93.249256" transform="rotate(-0 113.96 93.249256)">RNN · 42</text>
     </g>
    </g>
    <g id="ytick_2">
     <g id="line2d_14">
      <g>
       <use xlink:href="#m537fa093e8" x="120.96" y="119.060628" style="stroke: #000000; stroke-width: 0.8"/>
      </g>
     </g>
     <g id="text_9">
      <text style="font-size: 11px; font-family: 'DejaVu Sans'; text-anchor: end" x="113.96" y="123.239339" transform="rotate(-0 113.96 123.239339)">RNN · 43</text>
     </g>
    </g>
    <g id="ytick_3">
     <g id="line2d_15">
      <g>
       <use xlink:href="#m537fa093e8" x="120.96" y="149.050711" style="stroke: #000000; stroke-width: 0.8"/>
      </g>
     </g>
     <g id="text_10">
      <text style="font-size: 11px; font-family: 'DejaVu Sans'; text-anchor: end" x="113.96" y="153.229422" transform="rotate(-0 113.96 153.229422)">RNN · 44</text>
     </g>
    </g>
    <g id="ytick_4">
     <g id="line2d_16">
      <g>
       <use xlink:href="#m537fa093e8" x="120.96" y="179.040793" style="stroke: #000000; stroke-width: 0.8"/>
      </g>
     </g>
     <g id="text_11">
      <text style="font-size: 11px; font-family: 'DejaVu Sans'; text-anchor: end" x="113.96" y="183.219504" transform="rotate(-0 113.96 183.219504)">LSTM · 42</text>
     </g>
    </g>
    <g id="ytick_5">
     <g id="line2d_17">
      <g>
       <use xlink:href="#m537fa093e8" x="120.96" y="209.030876" style="stroke: #000000; stroke-width: 0.8"/>
      </g>
     </g>
     <g id="text_12">
      <text style="font-size: 11px; font-family: 'DejaVu Sans'; text-anchor: end" x="113.96" y="213.209587" transform="rotate(-0 113.96 213.209587)">LSTM · 43</text>
     </g>
    </g>
    <g id="ytick_6">
     <g id="line2d_18">
      <g>
       <use xlink:href="#m537fa093e8" x="120.96" y="239.020959" style="stroke: #000000; stroke-width: 0.8"/>
      </g>
     </g>
     <g id="text_13">
      <text style="font-size: 11px; font-family: 'DejaVu Sans'; text-anchor: end" x="113.96" y="243.19967" transform="rotate(-0 113.96 243.19967)">LSTM · 44</text>
     </g>
    </g>
    <g id="ytick_7">
     <g id="line2d_19">
      <g>
       <use xlink:href="#m537fa093e8" x="120.96" y="269.011041" style="stroke: #000000; stroke-width: 0.8"/>
      </g>
     </g>
     <g id="text_14">
      <text style="font-size: 11px; font-family: 'DejaVu Sans'; text-anchor: end" x="113.96" y="273.189752" transform="rotate(-0 113.96 273.189752)">GRU · 42</text>
     </g>
    </g>
    <g id="ytick_8">
     <g id="line2d_20">
      <g>
       <use xlink:href="#m537fa093e8" x="120.96" y="299.001124" style="stroke: #000000; stroke-width: 0.8"/>
      </g>
     </g>
     <g id="text_15">
      <text style="font-size: 11px; font-family: 'DejaVu Sans'; text-anchor: end" x="113.96" y="303.179835" transform="rotate(-0 113.96 303.179835)">GRU · 43</text>
     </g>
    </g>
    <g id="ytick_9">
     <g id="line2d_21">
      <g>
       <use xlink:href="#m537fa093e8" x="120.96" y="328.991207" style="stroke: #000000; stroke-width: 0.8"/>
      </g>
     </g>
     <g id="text_16">
      <text style="font-size: 11px; font-family: 'DejaVu Sans'; text-anchor: end" x="113.96" y="333.169918" transform="rotate(-0 113.96 333.169918)">GRU · 44</text>
     </g>
    </g>
    <g id="ytick_10">
     <g id="line2d_22">
      <g>
       <use xlink:href="#m537fa093e8" x="120.96" y="358.981289" style="stroke: #000000; stroke-width: 0.8"/>
      </g>
     </g>
     <g id="text_17">
      <text style="font-size: 11px; font-family: 'DejaVu Sans'; text-anchor: end" x="113.96" y="363.16043" transform="rotate(-0 113.96 363.16043)">DLinear · 42</text>
     </g>
    </g>
    <g id="ytick_11">
     <g id="line2d_23">
      <g>
       <use xlink:href="#m537fa093e8" x="120.96" y="388.971372" style="stroke: #000000; stroke-width: 0.8"/>
      </g>
     </g>
     <g id="text_18">
      <text style="font-size: 11px; font-family: 'DejaVu Sans'; text-anchor: end" x="113.96" y="393.150513" transform="rotate(-0 113.96 393.150513)">DLinear · 43</text>
     </g>
    </g>
    <g id="ytick_12">
     <g id="line2d_24">
      <g>
       <use xlink:href="#m537fa093e8" x="120.96" y="418.961455" style="stroke: #000000; stroke-width: 0.8"/>
      </g>
     </g>
     <g id="text_19">
      <text style="font-size: 11px; font-family: 'DejaVu Sans'; text-anchor: end" x="113.96" y="423.140595" transform="rotate(-0 113.96 423.140595)">DLinear · 44</text>
     </g>
    </g>
   </g>
   <g id="LineCollection_1">
    <path d="M 192.168208 89.070545
L 367.42582 89.070545
" clip-path="url(#pfcde8d0536)" style="fill: none; stroke: #245b7a; stroke-width: 1.6"/>
   </g>
   <g id="LineCollection_2">
    <path d="M 295.067584 119.060628
L 616.444403 119.060628
" clip-path="url(#pfcde8d0536)" style="fill: none; stroke: #245b7a; stroke-width: 1.6"/>
   </g>
   <g id="LineCollection_3">
    <path d="M 465.097069 149.050711
L 611.922288 149.050711
" clip-path="url(#pfcde8d0536)" style="fill: none; stroke: #245b7a; stroke-width: 1.6"/>
   </g>
   <g id="LineCollection_4">
    <path d="M 330.504624 179.040793
L 519.007472 179.040793
" clip-path="url(#pfcde8d0536)" style="fill: none; stroke: #af7624; stroke-width: 1.6"/>
   </g>
   <g id="LineCollection_5">
    <path d="M 441.862348 209.030876
L 582.050037 209.030876
" clip-path="url(#pfcde8d0536)" style="fill: none; stroke: #af7624; stroke-width: 1.6"/>
   </g>
   <g id="LineCollection_6">
    <path d="M 325.268546 239.020959
L 475.473476 239.020959
" clip-path="url(#pfcde8d0536)" style="fill: none; stroke: #af7624; stroke-width: 1.6"/>
   </g>
   <g id="LineCollection_7">
    <path d="M 336.558634 269.011041
L 544.764235 269.011041
" clip-path="url(#pfcde8d0536)" style="fill: none; stroke: #724966; stroke-width: 1.6"/>
   </g>
   <g id="LineCollection_8">
    <path d="M 539.978796 299.001124
L 712.701818 299.001124
" clip-path="url(#pfcde8d0536)" style="fill: none; stroke: #724966; stroke-width: 1.6"/>
   </g>
   <g id="LineCollection_9">
    <path d="M 454.913046 328.991207
L 630.697912 328.991207
" clip-path="url(#pfcde8d0536)" style="fill: none; stroke: #724966; stroke-width: 1.6"/>
   </g>
   <g id="LineCollection_10">
    <path d="M 149.138182 358.981289
L 399.291844 358.981289
" clip-path="url(#pfcde8d0536)" style="fill: none; stroke: #52724b; stroke-width: 1.6"/>
   </g>
   <g id="LineCollection_11">
    <path d="M 334.943073 388.971372
L 492.897594 388.971372
" clip-path="url(#pfcde8d0536)" style="fill: none; stroke: #52724b; stroke-width: 1.6"/>
   </g>
   <g id="LineCollection_12">
    <path d="M 456.549771 418.961455
L 581.46239 418.961455
" clip-path="url(#pfcde8d0536)" style="fill: none; stroke: #52724b; stroke-width: 1.6"/>
   </g>
   <g id="line2d_25">
    <path d="M 458.86056 435.456
L 458.86056 72.576
" clip-path="url(#pfcde8d0536)" style="fill: none; stroke-dasharray: 3.7,1.6; stroke-dashoffset: 0; stroke: #343a40"/>
   </g>
   <g id="patch_3">
    <path d="M 120.96 435.456
L 120.96 72.576
" style="fill: none; stroke: #000000; stroke-width: 0.8; stroke-linejoin: miter; stroke-linecap: square"/>
   </g>
   <g id="patch_4">
    <path d="M 120.96 435.456
L 740.88 435.456
" style="fill: none; stroke: #000000; stroke-width: 0.8; stroke-linejoin: miter; stroke-linecap: square"/>
   </g>
   <g id="PathCollection_1">
    <defs>
     <path id="m80eaf7d76b" d="M 0 3.162278
C 0.838646 3.162278 1.643056 2.82908 2.236068 2.236068
C 2.82908 1.643056 3.162278 0.838646 3.162278 0
C 3.162278 -0.838646 2.82908 -1.643056 2.236068 -2.236068
C 1.643056 -2.82908 0.838646 -3.162278 0 -3.162278
C -0.838646 -3.162278 -1.643056 -2.82908 -2.236068 -2.236068
C -2.82908 -1.643056 -3.162278 -0.838646 -3.162278 0
C -3.162278 0.838646 -2.82908 1.643056 -2.236068 2.236068
C -1.643056 2.82908 -0.838646 3.162278 0 3.162278
z
" style="stroke: #245b7a"/>
    </defs>
    <g clip-path="url(#pfcde8d0536)">
     <use xlink:href="#m80eaf7d76b" x="274.263525" y="89.070545" style="fill: #245b7a; stroke: #245b7a"/>
    </g>
   </g>
   <g id="PathCollection_2">
    <defs>
     <path id="m693fe1854e" d="M -3.162278 3.162278
L 3.162278 3.162278
L 3.162278 -3.162278
L -3.162278 -3.162278
z
" style="stroke: #245b7a"/>
    </defs>
    <g clip-path="url(#pfcde8d0536)">
     <use xlink:href="#m693fe1854e" x="443.971594" y="119.060628" style="fill: #245b7a; stroke: #245b7a"/>
    </g>
   </g>
   <g id="PathCollection_3">
    <defs>
     <path id="m0cd6899cba" d="M 0 -3.162278
L -3.162278 3.162278
L 3.162278 3.162278
z
" style="stroke: #245b7a"/>
    </defs>
    <g clip-path="url(#pfcde8d0536)">
     <use xlink:href="#m0cd6899cba" x="547.064562" y="149.050711" style="fill: #245b7a; stroke: #245b7a"/>
    </g>
   </g>
   <g id="PathCollection_4">
    <defs>
     <path id="mc7f21d2a43" d="M 0 3.162278
C 0.838646 3.162278 1.643056 2.82908 2.236068 2.236068
C 2.82908 1.643056 3.162278 0.838646 3.162278 0
C 3.162278 -0.838646 2.82908 -1.643056 2.236068 -2.236068
C 1.643056 -2.82908 0.838646 -3.162278 0 -3.162278
C -0.838646 -3.162278 -1.643056 -2.82908 -2.236068 -2.236068
C -2.82908 -1.643056 -3.162278 -0.838646 -3.162278 0
C -3.162278 0.838646 -2.82908 1.643056 -2.236068 2.236068
C -1.643056 2.82908 -0.838646 3.162278 0 3.162278
z
" style="stroke: #af7624"/>
    </defs>
    <g clip-path="url(#pfcde8d0536)">
     <use xlink:href="#mc7f21d2a43" x="426.439831" y="179.040793" style="fill: #af7624; stroke: #af7624"/>
    </g>
   </g>
   <g id="PathCollection_5">
    <defs>
     <path id="m3351896d59" d="M -3.162278 3.162278
L 3.162278 3.162278
L 3.162278 -3.162278
L -3.162278 -3.162278
z
" style="stroke: #af7624"/>
    </defs>
    <g clip-path="url(#pfcde8d0536)">
     <use xlink:href="#m3351896d59" x="518.346194" y="209.030876" style="fill: #af7624; stroke: #af7624"/>
    </g>
   </g>
   <g id="PathCollection_6">
    <defs>
     <path id="m3d1aabc9b5" d="M 0 -3.162278
L -3.162278 3.162278
L 3.162278 3.162278
z
" style="stroke: #af7624"/>
    </defs>
    <g clip-path="url(#pfcde8d0536)">
     <use xlink:href="#m3d1aabc9b5" x="409.149515" y="239.020959" style="fill: #af7624; stroke: #af7624"/>
    </g>
   </g>
   <g id="PathCollection_7">
    <defs>
     <path id="m28f4c63d91" d="M 0 3.162278
C 0.838646 3.162278 1.643056 2.82908 2.236068 2.236068
C 2.82908 1.643056 3.162278 0.838646 3.162278 0
C 3.162278 -0.838646 2.82908 -1.643056 2.236068 -2.236068
C 1.643056 -2.82908 0.838646 -3.162278 0 -3.162278
C -0.838646 -3.162278 -1.643056 -2.82908 -2.236068 -2.236068
C -2.82908 -1.643056 -3.162278 -0.838646 -3.162278 0
C -3.162278 0.838646 -2.82908 1.643056 -2.236068 2.236068
C -1.643056 2.82908 -0.838646 3.162278 0 3.162278
z
" style="stroke: #724966"/>
    </defs>
    <g clip-path="url(#pfcde8d0536)">
     <use xlink:href="#m28f4c63d91" x="443.302392" y="269.011041" style="fill: #724966; stroke: #724966"/>
    </g>
   </g>
   <g id="PathCollection_8">
    <defs>
     <path id="mf352a2889b" d="M -3.162278 3.162278
L 3.162278 3.162278
L 3.162278 -3.162278
L -3.162278 -3.162278
z
" style="stroke: #724966"/>
    </defs>
    <g clip-path="url(#pfcde8d0536)">
     <use xlink:href="#mf352a2889b" x="616.932885" y="299.001124" style="fill: #724966; stroke: #724966"/>
    </g>
   </g>
   <g id="PathCollection_9">
    <defs>
     <path id="m6bb77bb6e4" d="M 0 -3.162278
L -3.162278 3.162278
L 3.162278 3.162278
z
" style="stroke: #724966"/>
    </defs>
    <g clip-path="url(#pfcde8d0536)">
     <use xlink:href="#m6bb77bb6e4" x="547.096336" y="328.991207" style="fill: #724966; stroke: #724966"/>
    </g>
   </g>
   <g id="PathCollection_10">
    <defs>
     <path id="m217f4e3ab5" d="M 0 3.162278
C 0.838646 3.162278 1.643056 2.82908 2.236068 2.236068
C 2.82908 1.643056 3.162278 0.838646 3.162278 0
C 3.162278 -0.838646 2.82908 -1.643056 2.236068 -2.236068
C 1.643056 -2.82908 0.838646 -3.162278 0 -3.162278
C -0.838646 -3.162278 -1.643056 -2.82908 -2.236068 -2.236068
C -2.82908 -1.643056 -3.162278 -0.838646 -3.162278 0
C -3.162278 0.838646 -2.82908 1.643056 -2.236068 2.236068
C -1.643056 2.82908 -0.838646 3.162278 0 3.162278
z
" style="stroke: #52724b"/>
    </defs>
    <g clip-path="url(#pfcde8d0536)">
     <use xlink:href="#m217f4e3ab5" x="265.782791" y="358.981289" style="fill: #52724b; stroke: #52724b"/>
    </g>
   </g>
   <g id="PathCollection_11">
    <defs>
     <path id="m915508b2c5" d="M -3.162278 3.162278
L 3.162278 3.162278
L 3.162278 -3.162278
L -3.162278 -3.162278
z
" style="stroke: #52724b"/>
    </defs>
    <g clip-path="url(#pfcde8d0536)">
     <use xlink:href="#m915508b2c5" x="422.651151" y="388.971372" style="fill: #52724b; stroke: #52724b"/>
    </g>
   </g>
   <g id="PathCollection_12">
    <defs>
     <path id="m545043392d" d="M 0 -3.162278
L -3.162278 3.162278
L 3.162278 3.162278
z
" style="stroke: #52724b"/>
    </defs>
    <g clip-path="url(#pfcde8d0536)">
     <use xlink:href="#m545043392d" x="522.266087" y="418.961455" style="fill: #52724b; stroke: #52724b"/>
    </g>
   </g>
  </g>
  <g id="text_20">
   <text style="font-size: 16px; font-family: 'DejaVu Sans'; text-anchor: start" x="113.4" y="22.5255" transform="rotate(-0 113.4 22.5255)">Continuaciones desde el mismo punto de control</text>
  </g>
  <g id="text_21">
   <text style="font-size: 10px; font-family: 'DejaVu Sans'; text-anchor: start; fill: #50555a" x="113.4" y="46.656" transform="rotate(-0 113.4 46.656)">Cinco épocas adicionales · 225 muestras de validación · menor diferencia favorece MAE</text>
  </g>
  <g id="text_22">
   <text style="font-size: 9px; font-family: 'DejaVu Sans'; fill: #50555a" transform="translate(113.4 494.277539)">Intervalos exploratorios del 95 %, sin corrección por selección múltiple.</text>
   <text style="font-size: 9px; font-family: 'DejaVu Sans'; fill: #50555a" transform="translate(113.4 505.44)">Bloques móviles de cinco fechas observadas y 2.000 remuestreos. 1 pb = 0,0001 de retorno.</text>
  </g>
 </g>
 <defs>
  <clipPath id="pfcde8d0536">
   <rect x="120.96" y="72.576" width="619.92" height="362.88"/>
  </clipPath>
 </defs>
</svg>
